<svg width="100" height="100" viewBox="0 0 100 100" fill="none" xmlns="http://www.w3.org/2000/svg">
<path d="M83.8889 87.5H93.8889V61.4795H83.8889V87.5Z" fill="#1B2124"/>
<path d="M72.7778 87.5H82.7778V77.1817H72.7778V87.5Z" fill="#464646"/>
<path d="M61.6667 87.5H71.6667L71.6667 21.3618H61.6667L61.6667 87.5Z" fill="#C9C9C9"/>
<path d="M50.5555 87.5H60.5555L60.5555 35.8936H50.5555L50.5555 87.5Z" fill="#FF0000"/>
<path d="M39.4444 87.5H49.4444L49.4444 39.4349H39.4444L39.4444 87.5Z" fill="#1B2124"/>
<path d="M28.3333 87.5H38.3333V67.0715H28.3333L28.3333 87.5Z" fill="#464646"/>
<path d="M17.2222 87.5H27.2222L27.2222 24.9615H17.2222L17.2222 87.5Z" fill="#C9C9C9"/>
<path d="M6.11111 87.5H16.1111L16.1111 12.5884H6.11111L6.11111 87.5Z" fill="#FF0000"/>
</svg>
